<?xml version="1.0" encoding="UTF-8"?>
<svg version="1.1" xmlns="http://www.w3.org/2000/svg" width="256" height="256">
<path d="M0 0 C84.48 0 168.96 0 256 0 C256 84.48 256 168.96 256 256 C171.52 256 87.04 256 0 256 C0 171.52 0 87.04 0 0 Z M48 48 C48 63.84 48 79.68 48 96 C63.84 96 79.68 96 96 96 C96 80.16 96 64.32 96 48 C80.16 48 64.32 48 48 48 Z M176 80 C176 85.28 176 90.56 176 96 C170.72 96 165.44 96 160 96 C160 101.28 160 106.56 160 112 C154.72 112 149.44 112 144 112 C144 117.28 144 122.56 144 128 C138.72 128 133.44 128 128 128 C128 133.28 128 138.56 128 144 C122.72 144 117.44 144 112 144 C112 149.28 112 154.56 112 160 C106.72 160 101.44 160 96 160 C96 154.72 96 149.44 96 144 C90.72 144 85.44 144 80 144 C80 138.72 80 133.44 80 128 C74.72 128 69.44 128 64 128 C64 133.28 64 138.56 64 144 C58.72 144 53.44 144 48 144 C48 149.28 48 154.56 48 160 C42.72 160 37.44 160 32 160 C32 181.12 32 202.24 32 224 C95.36 224 158.72 224 224 224 C224 187.04 224 150.08 224 112 C218.72 112 213.44 112 208 112 C208 106.72 208 101.44 208 96 C202.72 96 197.44 96 192 96 C192 90.72 192 85.44 192 80 C186.72 80 181.44 80 176 80 Z " fill="#FFBDDC" transform="translate(0,0)"/>
</svg>
